<svg height="512pt" viewBox="0 0 512 512" width="512pt" xmlns="http://www.w3.org/2000/svg"><path d="m512 256c0 141.386719-114.613281 256-256 256s-256-114.613281-256-256 114.613281-256 256-256 256 114.613281 256 256zm0 0" fill="#ffe955"/><path d="m512 256c0 141.378906-114.621094 256-256 256s-256-114.621094-256-256c0-46.21875 12.25-89.570312 33.679688-127 44.121093 77.070312 127.160156 129 222.320312 129s178.210938-51.929688 222.320312-129c21.429688 37.429688 33.679688 80.78125 33.679688 127zm0 0" fill="#ffd112"/><path d="m393.398438 472.03125v.007812c-3.949219 2.519532-7.976563 4.929688-12.078126 7.242188h-.011718c-4.199219 2.359375-8.46875 4.609375-12.808594 6.730469l-89.328125-87.902344-23.171875-22.800781-12.230469-12.027344-12.21875-12.03125-31.011719-30.519531-40.558593-39.921875-24.78125-24.386719-24.871094-24.472656-31.199219-30.710938c-5.089844-5.007812-5.070312-13.21875.042969-18.199219l6.839844-6.667968 6.839843-6.679688c5.117188-4.980468 13.328126-4.792968 18.207032.429688l32.382812 34.617187 21.347656 22.832031 21.429688 22.917969 41.191406 44.042969 28.589844 30.570312 12.230469 13.089844 12.21875 13.058594 22.3125 23.859375zm0 0" fill="#c55835"/><path d="m393.398438 472.03125v.007812c-3.949219 2.519532-7.976563 4.929688-12.078126 7.242188h-.011718l-90.339844-92.671875-22.738281-23.328125-12.230469-12.542969-12.230469-12.546875-29.789062-30.5625-40.902344-41.949218-8.898437-9.128907-14.179688-14.550781h-.011719l-23.078125-23.679688-40.898437-41.949218 6.839843-6.679688c5.117188-4.980468 13.328126-4.792968 18.207032.429688l32.382812 34.617187 21.347656 22.832031 21.429688 22.917969 41.191406 44.042969 28.589844 30.570312 12.230469 13.089844 12.21875 13.058594 22.3125 23.859375zm0 0" fill="#a63914"/><path d="m111.054688 170.117188 116.355468 124.414062-26.871094 26.195312-121.410156-119.484374c-5.089844-5.011719-5.074218-13.222657.039063-18.207032l13.6875-13.339844c5.113281-4.984374 13.320312-4.792968 18.199219.421876zm0 0" fill="#8a97a0"/><path d="m86.011719 176.363281 127.964843 131.265625-13.4375 13.097656-121.410156-119.484374c-5.089844-5.011719-5.074218-13.222657.039063-18.207032zm0 0" fill="#adb5bc"/><path d="m226.960938 166.964844c7.8125 8.015625 13.300781 17.441406 16.460937 27.441406 3.167969 9.988281 4.007813 20.546875 2.535156 30.835938-10.796875-11.078126-28.753906-10.539063-38.886719 1.148437l-33.992187 39.285156-24.125 27.863281c-9.472656 10.9375-13.960937 24.578126-13.558594 38.082032.191407 6.683594 1.59375 13.320312 4.167969 19.585937 2.640625 6.410157 6.511719 12.402344 11.617188 17.636719-34.40625 4.015625-70.242188-7.40625-96.296876-34.128906-13.027343-13.363282-22.160156-29.070313-27.4375-45.730469-5.269531-16.65625-6.675781-34.257813-4.230468-51.402344 5.105468 5.234375 10.996094 9.257813 17.335937 12.058594 18.714844 8.273437 41.199219 5.816406 57.890625-7.917969l28.46875-23.40625 40.136719-32.984375c11.941406-9.828125 12.9375-27.765625 2.136719-38.84375 20.640625-2.40625 42.144531 4.441407 57.777344 20.476563zm0 0" fill="#d0f6ff"/><path d="m226.960938 166.964844c7.8125 8.015625 13.300781 17.441406 16.460937 27.441406 3.167969 9.988281 4.007813 20.546875 2.535156 30.835938-3.519531-3.609376-7.789062-5.988282-12.316406-7.136719-9.34375-2.410157-19.742187.402343-26.570313 8.285156l-33.992187 39.285156-46.167969-47.359375 40.136719-32.984375c8.054687-6.621093 11.125-16.9375 8.96875-26.34375-1.042969-4.542969-3.308594-8.886719-6.828125-12.5 20.636719-2.40625 42.140625 4.441407 57.773438 20.476563zm0 0" fill="#8fc9f7"/><path d="m226.960938 166.964844c7.8125 8.015625 13.300781 17.441406 16.460937 27.441406 3.167969 9.988281 4.007813 20.546875 2.535156 30.835938-10.796875-11.078126-28.753906-10.539063-38.886719 1.148437l-33.992187 39.285156-24.125 27.863281c-9.472656 10.9375-13.960937 24.578126-13.558594 38.082032.191407 6.683594 1.59375 13.320312 4.167969 19.585937 2.640625 6.410157 6.511719 12.402344 11.617188 17.636719-34.40625 4.015625-70.242188-7.40625-96.296876-34.128906zm0 0" fill="#8fc9f7"/><path d="m72.65625 317.390625c18.65625 19.140625 42.328125 30.425781 66.90625 33.820313 2.640625 6.40625 6.511719 12.402343 11.617188 17.636718-34.40625 4.011719-70.242188-7.40625-96.296876-34.128906-13.027343-13.363281-22.160156-29.070312-27.4375-45.730469-5.269531-16.65625-6.675781-34.257812-4.230468-51.402343 5.105468 5.234374 10.996094 9.257812 17.335937 12.058593 2.765625 24.65625 13.449219 48.609375 32.105469 67.746094zm0 0" fill="#fff"/><path d="m139.5625 351.210938c2.640625 6.40625 6.511719 12.402343 11.617188 17.636718-34.40625 4.011719-70.242188-7.40625-96.296876-34.128906l17.773438-17.328125c18.65625 19.136719 42.328125 30.425781 66.90625 33.820313zm0 0" fill="#d0f6ff"/><path d="m226.960938 166.964844c7.8125 8.015625 13.300781 17.441406 16.460937 27.441406 3.167969 9.988281 4.007813 20.546875 2.535156 30.835938-.296875-.308594-.613281-.613282-.921875-.898438-.726562-.679688-1.480468-1.308594-2.273437-1.894531-.253907-.195313-.515625-.382813-.773438-.550781-.339843-.238282-.6875-.464844-1.046875-.683594-.179687-.121094-.371094-.238282-.570312-.34375-.574219-.347656-1.160156-.660156-1.773438-.945313-.132812-.074219-.277344-.140625-.417968-.207031-.300782-.148438-.597657-.269531-.90625-.394531-.40625-.171875-.816407-.335938-1.230469-.484375-.316407-.117188-.640625-.226563-.960938-.324219-.191406-.066406-.386719-.125-.59375-.175781-.277343-.09375-.558593-.167969-.84375-.234375-9.34375-2.410157-19.746093.402343-26.570312 8.285156l-33.996094 39.285156-23.082031-23.679687zm0 0" fill="#65b2ff"/><path d="m226.960938 166.964844-12.386719 12.074218c-10.789063-11.066406-24.378907-17.765624-38.558594-20.046874-1.042969-4.542969-3.3125-8.890626-6.832031-12.5 20.640625-2.410157 42.144531 4.4375 57.777344 20.472656zm0 0" fill="#d0f6ff"/><path d="m226.960938 166.964844c7.8125 8.015625 13.300781 17.441406 16.460937 27.441406 3.167969 9.988281 4.007813 20.546875 2.535156 30.835938-.296875-.308594-.605469-.605469-.921875-.898438-.726562-.679688-1.480468-1.308594-2.273437-1.894531-.253907-.195313-.515625-.382813-.773438-.550781-.339843-.238282-.6875-.464844-1.046875-.683594-.179687-.121094-.371094-.238282-.570312-.34375-.574219-.347656-1.160156-.660156-1.773438-.945313-.132812-.074219-.277344-.140625-.417968-.207031-.292969-.140625-.597657-.269531-.90625-.394531-.40625-.171875-.816407-.335938-1.230469-.484375-.316407-.117188-.636719-.21875-.960938-.324219-.199219-.058594-.398437-.117187-.59375-.175781-.277343-.09375-.558593-.167969-.84375-.234375-.523437-3.933594-1.390625-7.828125-2.605469-11.625-3.160156-10-8.648437-19.425781-16.460937-27.441407zm0 0" fill="#8fc9f7"/><path d="m393.398438 472.03125v.007812c-3.949219 2.519532-7.976563 4.929688-12.078126 7.242188h-.011718c-4.199219 2.359375-8.46875 4.609375-12.808594 6.730469l-89.328125-87.902344 11.796875-11.5 11.792969-11.5zm0 0" fill="#a63914"/><path d="m393.398438 472.03125v.007812c-3.949219 2.519532-7.976563 4.929688-12.078126 7.242188h-.011718l-90.339844-92.671875 11.792969-11.5zm0 0" fill="#561b0f"/><path d="m432.871094 201.238281-31.199219 30.710938-24.871094 24.472656-24.78125 24.386719-40.558593 39.921875-31.011719 30.519531-12.21875 12.03125-12.230469 12.027344-23.171875 22.800781-89.328125 87.902344c-4.339844-2.121094-8.609375-4.371094-12.808594-6.730469h-.011718c-4.101563-2.3125-8.128907-4.722656-12.078126-7.242188v-.007812l90.636719-96.921875 22.3125-23.859375 12.21875-13.058594 12.230469-13.089844 28.589844-30.570312 41.191406-44.042969 21.429688-22.917969 21.347656-22.832031 32.382812-34.617187c4.878906-5.222656 13.089844-5.410156 18.207032-.429688l6.839843 6.679688 6.839844 6.667968c5.113281 4.980469 5.132813 13.191407.042969 18.199219zm0 0" fill="#a63914"/><path d="m425.988281 176.371094-40.898437 41.949218-23.078125 23.679688-23.089844 23.679688-40.902344 41.949218-29.789062 30.5625-12.230469 12.546875-12.230469 12.542969-22.738281 23.328125-90.339844 92.671875h-.011718c-4.101563-2.3125-8.128907-4.722656-12.078126-7.242188v-.007812l90.636719-96.921875 22.3125-23.859375 12.21875-13.058594 12.230469-13.089844 28.589844-30.570312 41.191406-44.042969 21.429688-22.917969 21.347656-22.832031 32.382812-34.617187c4.878906-5.222656 13.089844-5.410156 18.207032-.429688zm0 0" fill="#c55835"/><path d="m400.945312 170.117188-116.355468 124.414062 26.871094 26.195312 121.410156-119.484374c5.089844-5.011719 5.074218-13.222657-.039063-18.207032l-13.6875-13.339844c-5.113281-4.984374-13.320312-4.792968-18.199219.421876zm0 0" fill="#adb5bc"/><path d="m425.988281 176.363281-127.964843 131.265625 13.4375 13.097656 121.410156-119.484374c5.089844-5.011719 5.074218-13.222657-.039063-18.207032zm0 0" fill="#8a97a0"/><path d="m285.039062 166.964844c-7.8125 8.015625-13.300781 17.441406-16.460937 27.441406-3.167969 9.988281-4.007813 20.546875-2.535156 30.835938 10.796875-11.078126 28.757812-10.539063 38.886719 1.148437l33.992187 39.285156 24.125 27.863281c9.472656 10.9375 13.964844 24.578126 13.558594 38.082032-.191407 6.683594-1.59375 13.320312-4.167969 19.585937-2.640625 6.410157-6.511719 12.402344-11.617188 17.636719 34.40625 4.015625 70.242188-7.40625 96.296876-34.128906 13.027343-13.363282 22.160156-29.070313 27.4375-45.730469 5.269531-16.65625 6.675781-34.257813 4.230468-51.402344-5.105468 5.234375-10.996094 9.257813-17.335937 12.058594-18.714844 8.273437-41.199219 5.816406-57.890625-7.917969l-28.46875-23.40625-40.136719-32.984375c-11.941406-9.828125-12.9375-27.765625-2.136719-38.84375-20.640625-2.40625-42.144531 4.441407-57.777344 20.476563zm0 0" fill="#8fc9f7"/><path d="m285.039062 166.964844c-7.8125 8.015625-13.300781 17.441406-16.460937 27.441406-3.167969 9.988281-4.007813 20.546875-2.535156 30.835938 3.519531-3.609376 7.789062-5.988282 12.316406-7.136719 9.34375-2.410157 19.742187.402343 26.570313 8.285156l33.992187 39.285156 46.167969-47.359375-40.136719-32.984375c-8.054687-6.621093-11.121094-16.9375-8.96875-26.34375 1.042969-4.542969 3.3125-8.886719 6.832031-12.5-20.640625-2.40625-42.144531 4.441407-57.777344 20.476563zm0 0" fill="#d0f6ff"/><path d="m285.039062 166.964844c-7.8125 8.015625-13.300781 17.441406-16.460937 27.441406-3.167969 9.988281-4.007813 20.546875-2.535156 30.835938 10.796875-11.078126 28.757812-10.539063 38.886719 1.148437l33.992187 39.285156 24.125 27.863281c9.472656 10.9375 13.964844 24.578126 13.558594 38.082032-.191407 6.683594-1.59375 13.320312-4.167969 19.585937-2.640625 6.410157-6.511719 12.402344-11.617188 17.636719 34.40625 4.015625 70.242188-7.40625 96.296876-34.128906zm0 0" fill="#65b2ff"/><path d="m439.34375 317.390625c-18.65625 19.140625-42.328125 30.425781-66.90625 33.820313-2.640625 6.40625-6.511719 12.402343-11.617188 17.636718 34.40625 4.011719 70.242188-7.40625 96.296876-34.128906 13.027343-13.363281 22.160156-29.070312 27.4375-45.730469 5.269531-16.65625 6.675781-34.257812 4.230468-51.402343-5.105468 5.234374-10.996094 9.257812-17.335937 12.058593-2.765625 24.65625-13.449219 48.609375-32.105469 67.746094zm0 0" fill="#fff"/><path d="m372.4375 351.210938c-2.640625 6.40625-6.511719 12.402343-11.617188 17.636718 34.40625 4.011719 70.242188-7.40625 96.296876-34.128906l-17.773438-17.328125c-18.65625 19.136719-42.328125 30.425781-66.90625 33.820313zm0 0" fill="#d0f6ff"/><path d="m285.039062 166.964844c-7.8125 8.015625-13.300781 17.441406-16.460937 27.441406-3.167969 9.988281-4.007813 20.546875-2.535156 30.835938.300781-.308594.613281-.613282.921875-.898438.726562-.679688 1.484375-1.308594 2.273437-1.894531.253907-.195313.515625-.382813.777344-.550781.339844-.238282.6875-.464844 1.042969-.683594.179687-.121094.371094-.238282.570312-.34375.578125-.347656 1.164063-.660156 1.773438-.945313.136718-.074219.277344-.140625.421875-.207031.300781-.148438.59375-.269531.902343-.394531.40625-.171875.820313-.335938 1.230469-.484375.320313-.117188.644531-.226563.960938-.324219.191406-.066406.390625-.125.597656-.175781.277344-.09375.554687-.167969.84375-.234375 9.34375-2.410157 19.742187.402343 26.570313 8.285156l33.992187 39.285156 23.085937-23.679687zm0 0" fill="#8fc9f7"/><path d="m285.039062 166.964844 12.386719 12.074218c10.789063-11.066406 24.378907-17.765624 38.558594-20.046874 1.042969-4.542969 3.308594-8.890626 6.828125-12.5-20.636719-2.410157-42.140625 4.4375-57.773438 20.472656zm0 0" fill="#fff"/><path d="m285.039062 166.964844c-7.8125 8.015625-13.300781 17.441406-16.460937 27.441406-3.167969 9.988281-4.007813 20.546875-2.535156 30.835938.300781-.308594.605469-.605469.921875-.898438.726562-.679688 1.484375-1.308594 2.273437-1.894531.253907-.195313.515625-.382813.777344-.550781.339844-.238282.6875-.464844 1.042969-.683594.179687-.121094.371094-.238282.570312-.34375.578125-.347656 1.164063-.660156 1.773438-.945313.136718-.074219.277344-.140625.421875-.207031.292969-.140625.59375-.269531.902343-.394531.40625-.171875.820313-.335938 1.230469-.484375.320313-.117188.636719-.21875.960938-.324219.199219-.058594.398437-.117187.597656-.175781.277344-.09375.554687-.167969.84375-.234375.523437-3.933594 1.390625-7.828125 2.605469-11.625 3.15625-10 8.648437-19.425781 16.460937-27.441407zm0 0" fill="#d0f6ff"/><path d="m232.828125 398.109375-89.328125 87.902344c-4.339844-2.121094-8.609375-4.371094-12.808594-6.730469h-.011718c-4.101563-2.3125-8.128907-4.722656-12.078126-7.242188v-.007812l90.636719-96.921875 11.792969 11.5zm0 0" fill="#561b0f"/><path d="m221.03125 386.609375-90.339844 92.671875h-.011718c-4.101563-2.3125-8.128907-4.722656-12.078126-7.242188v-.007812l90.636719-96.921875zm0 0" fill="#a63914"/></svg>