<svg id="Capa_1" enable-background="new 0 0 512 512" height="512" viewBox="0 0 512 512" width="512" xmlns="http://www.w3.org/2000/svg"><circle cx="256" cy="256" fill="#4e689b" r="256"/><path d="m512 256c0 72.199-29.896 137.425-77.982 183.968-9.931 9.612-346.104 9.612-356.035 0-48.087-46.542-77.983-111.769-77.983-183.968 0-46.22 12.25-89.57 33.68-127 44.12 77.07 127.16 129 222.32 129s178.21-51.93 222.32-129c21.43 37.43 33.68 80.78 33.68 127z" fill="#374c81"/><path d="m434.02 163.32v276.65c-21.1 20.41-45.71 37.24-72.83 49.48h-210.39c-27.12-12.23-51.72-29.06-72.82-49.48v-274.78l107.04 139.61 70.98-139.61 70.98 139.61z" fill="#fed110"/><path d="m434.02 163.32v276.65c-21.1 20.41-45.71 37.24-72.83 49.48h-105.19v-324.26l70.98 139.61z" fill="#ff9f00"/><path d="m434.02 254.9v185.07c-21.1 20.41-45.71 37.24-72.83 49.48h-210.39c-27.12-12.23-51.72-29.06-72.82-49.48v-185.07l107.04 139.61 70.98-139.61 70.98 139.61z" fill="#ff9f00"/><path d="m434.02 253.04v186.93c-21.1 20.41-45.71 37.24-72.83 49.48h-105.19v-234.55l70.98 139.61z" fill="#ec781b"/><path d="m256 341.735v48.471c-13.386 0-24.235-10.849-24.235-24.235s10.849-24.236 24.235-24.236z" fill="#82f700"/><path d="m280.235 365.97c0 13.386-10.849 24.235-24.235 24.235v-48.471c13.386.001 24.235 10.85 24.235 24.236z" fill="#03cc7f"/><ellipse cx="115.164" cy="365.969" fill="#82f700" rx="22.579" ry="20.926"/><ellipse cx="396.836" cy="365.969" fill="#03cc7f" rx="22.579" ry="20.926"/><path d="m277.616 169.159c0 11.635-9.184 21.115-20.696 21.595-.307.01-.613.02-.919.02-11.942 0-21.616-9.674-21.616-21.616s9.674-21.616 21.616-21.616c.307 0 .613.01.919.02 11.512.482 20.696 9.961 20.696 21.597z" fill="#ff9f00"/><path d="m256.919 147.564c-.307-.01-.613-.02-.919-.02v43.231c.307 0 .613-.01.919-.02 11.513-.48 20.696-9.96 20.696-21.595.001-11.637-9.183-21.116-20.696-21.596z" fill="#ec781b"/><circle cx="434.019" cy="169.159" fill="#ec781b" r="21.616"/><circle cx="77.981" cy="169.159" fill="#ff9f00" r="21.616"/><path d="m434.1 419.04v20.85c-46.08 44.63-108.88 72.11-178.1 72.11-29.3 0-57.45-4.92-83.67-13.99-35.72-12.34-67.86-32.38-94.43-58.12v-20.85z" fill="#ffe853"/><path d="m434.1 419.04v20.85c-46.08 44.63-108.88 72.11-178.1 72.11-29.3 0-57.45-4.92-83.67-13.99v-78.97z" fill="#fed110"/><path d="m434.1 419.04v20.85c-46.08 44.63-108.88 72.11-178.1 72.11v-92.96z" fill="#ff9f00"/><g fill="#fff"><path d="m27.222 213.798h1.524c6.753 0 12.227-5.474 12.227-12.227v-1.524h8.716v1.524c0 6.753 5.474 12.227 12.227 12.227h1.525v8.716h-1.525c-6.753 0-12.227 5.474-12.227 12.227v1.525h-8.716v-1.525c0-6.753-5.474-12.227-12.227-12.227h-1.524z"/><path d="m448.56 213.798h1.524c6.753 0 12.227-5.474 12.227-12.227v-1.524h8.716v1.524c0 6.753 5.474 12.227 12.227 12.227h1.525v8.716h-1.525c-6.753 0-12.227 5.474-12.227 12.227v1.525h-8.716v-1.525c0-6.753-5.474-12.227-12.227-12.227h-1.524z"/><path d="m139.944 119.173h1.524c6.753 0 12.227-5.474 12.227-12.227v-1.524h8.716v1.524c0 6.753 5.474 12.227 12.227 12.227h1.525v8.716h-1.525c-6.753 0-12.227 5.474-12.227 12.227v1.525h-8.716v-1.525c0-6.753-5.474-12.227-12.227-12.227h-1.524z"/><path d="m335.838 119.173h1.524c6.753 0 12.227-5.474 12.227-12.227v-1.524h8.716v1.524c0 6.753 5.474 12.227 12.227 12.227h1.525v8.716h-1.525c-6.753 0-12.227 5.474-12.227 12.227v1.525h-8.716v-1.525c0-6.753-5.474-12.227-12.227-12.227h-1.524z"/><path d="m237.891 36.696h1.524c6.753 0 12.227-5.474 12.227-12.227v-1.524h8.716v1.524c0 6.753 5.474 12.227 12.227 12.227h1.525v8.716h-1.525c-6.753 0-12.227 5.474-12.227 12.227v1.525h-8.716v-1.525c0-6.753-5.474-12.227-12.227-12.227h-1.524z"/></g></svg>