<svg height="512pt" viewBox="0 0 512 512" width="512pt" xmlns="http://www.w3.org/2000/svg"><path d="m512 256c0 141.378906-114.621094 256-256 256-102.351562 0-190.679688-60.078125-231.640625-146.890625-15.628906-33.097656-24.359375-70.078125-24.359375-109.109375 0-141.378906 114.621094-256 256-256 106.640625 0 198.050781 65.210938 236.53125 157.921875 12.546875 30.207031 19.46875 63.339844 19.46875 98.078125zm0 0" fill="#65b2ff"/><path d="m512 256c0 141.378906-114.621094 256-256 256s-256-114.621094-256-256c0-46.21875 12.25-89.570312 33.679688-127 44.121093 77.070312 127.160156 129 222.320312 129s178.210938-51.929688 222.320312-129c21.429688 37.429688 33.679688 80.78125 33.679688 127zm0 0" fill="#0f9be8"/><path d="m481.261719 377.699219v.011719c-43.292969 79.96875-127.941407 134.289062-225.261719 134.289062s-181.96875-54.320312-225.261719-134.289062v-.011719zm0 0" fill="#1076e3"/><path d="m435.058594 438.96875c-3.730469 3.640625-7.578125 7.179688-11.527344 10.601562-.632812.550782-1.261719 1.089844-1.902344 1.628907h-14.410156c-2.5 0-4.910156-1.027344-6.609375-2.859375-9.167969-9.851563-16.417969-21.199219-21.480469-33.441406-.390625-.949219-.757812-1.898438-1.128906-2.847657-.03125-.070312-.050781-.140625-.078125-.210937-.191406-.511719-.382813-1.03125-.570313-1.539063-.132812-.359375-.261718-.730469-.390624-1.101562-.121094-.347657-.242188-.699219-.359376-1.050781-.210937-.628907-.421874-1.257813-.621093-1.886719-.109375-.351563-.21875-.691407-.332031-1.03125-.238282-.800781-.476563-1.589844-.707032-2.402344-.03125-.117187-.070312-.238281-.101562-.359375-1.371094-4.867188-2.410156-9.839844-3.109375-14.890625-.699219-5.039063-1.058594-10.148437-1.058594-15.296875v-14.683594h-170.460937l-59.070313-59.21875-22.332031-22.328125-61.636719-61.640625c-4.730469-4.738281-4.480469-12.46875.519531-16.929687 37.570313-33.480469 87.046875-53.878907 141.296875-54.050781 16.273438-.050782 32.121094 1.761718 47.371094 5.242187 95.210937 21.6875 166.8125 108.128906 166.8125 209.65625v13.472656c0 23.460938 7.347656 46.167969 20.757813 65.050781.492187.679688.859374 1.386719 1.128906 2.117188zm0 0" fill="#ffd112"/><path d="m435.058594 438.96875c-3.730469 3.640625-7.578125 7.179688-11.527344 10.601562-.632812.550782-1.261719 1.089844-1.902344 1.628907h-14.410156c-2.5 0-4.910156-1.027344-6.609375-2.859375-9.167969-9.851563-16.417969-21.199219-21.480469-33.441406-.390625-.949219-.757812-1.898438-1.128906-2.847657-.03125-.070312-.050781-.140625-.078125-.210937-.191406-.511719-.382813-1.03125-.570313-1.539063-.132812-.359375-.261718-.730469-.390624-1.101562-.121094-.347657-.242188-.699219-.359376-1.050781-.210937-.628907-.421874-1.257813-.621093-1.886719-.109375-.351563-.21875-.691407-.332031-1.03125-.238282-.800781-.476563-1.589844-.707032-2.402344-.03125-.117187-.070312-.238281-.101562-.359375-1.371094-4.867188-2.410156-9.839844-3.109375-14.890625-.699219-5.039063-1.058594-10.148437-1.058594-15.296875v-14.683594h-124.3125v-208.925781c95.210937 21.6875 166.8125 108.128906 166.8125 209.65625v13.472656c0 23.460938 7.347656 46.167969 20.757813 65.050781.492187.679688.859374 1.386719 1.128906 2.117188zm0 0" fill="#ff9f00"/><path d="m423.53125 449.570312c-.632812.550782-1.261719 1.089844-1.902344 1.628907h-14.410156c-2.5 0-4.910156-1.027344-6.609375-2.859375-9.167969-9.851563-16.417969-21.199219-21.480469-33.441406-.390625-.949219-.757812-1.898438-1.128906-2.847657-.03125-.070312-.050781-.140625-.078125-.210937-.070313-.210938-.152344-.410156-.222656-.621094-.121094-.308594-.230469-.609375-.347657-.917969-.132812-.359375-.261718-.730469-.390624-1.101562-.121094-.347657-.242188-.699219-.359376-1.050781-.210937-.628907-.421874-1.257813-.621093-1.886719-.109375-.351563-.21875-.691407-.332031-1.03125-.238282-.800781-.476563-1.589844-.707032-2.402344-.03125-.117187-.070312-.238281-.101562-.359375-1.371094-4.867188-2.410156-9.839844-3.109375-14.890625-.699219-5.039063-1.058594-10.148437-1.058594-15.296875v-14.683594h-170.460937l-59.070313-59.21875-22.332031-22.328125v-.011719c26.011718-41.75 72.269531-69.578124 125.042968-69.757812.839844 0 1.679688 0 2.507813.007812 80.582031 1.082032 145.8125 66.929688 145.8125 147.820313 0 .941406-.023437 1.878906-.042969 2.820313v1.46875l.050782 13.882812c0 14.757812 2.921874 29.230469 8.449218 42.617188 5.070313 12.242187 12.3125 23.589843 21.480469 33.441406.429687.460937.910156.878906 1.421875 1.230468zm0 0" fill="#ed771b"/><path d="m423.53125 449.570312c-.632812.550782-1.261719 1.089844-1.902344 1.628907h-14.410156c-2.5 0-4.910156-1.027344-6.609375-2.859375-9.167969-9.851563-16.417969-21.199219-21.480469-33.441406-.390625-.949219-.757812-1.898438-1.128906-2.847657-.03125-.070312-.050781-.140625-.078125-.210937-.070313-.210938-.152344-.410156-.222656-.621094-.121094-.308594-.230469-.609375-.347657-.917969-.132812-.359375-.261718-.730469-.390624-1.101562-.121094-.347657-.242188-.699219-.359376-1.050781-.210937-.628907-.421874-1.257813-.621093-1.886719-.109375-.351563-.21875-.691407-.332031-1.03125-.238282-.800781-.476563-1.589844-.707032-2.402344-.03125-.117187-.070312-.238281-.101562-.359375-1.371094-4.867188-2.410156-9.839844-3.109375-14.890625-.699219-5.039063-1.058594-10.148437-1.058594-15.296875v-14.683594h-124.3125v-151.308594c80.582031 1.082032 145.8125 66.929688 145.8125 147.820313 0 .941406-.023437 1.890625-.042969 2.832031l.050782 15.339844c0 14.757812 2.921874 29.230469 8.449218 42.617188 5.070313 12.242187 12.3125 23.589843 21.480469 33.441406.429687.460937.910156.878906 1.421875 1.230468zm0 0" fill="#c55835"/><path d="m370.671875 356.921875v.597656c0 21.75-5.570313 42.191407-15.371094 59.980469-7.242187 13.160156-12.332031 27.351562-14.929687 42.03125-2.320313 13.078125-13.722656 22.609375-27.019532 22.609375l-66.992187-.019531h-5.140625c-20.980469-.011719-41.238281 6.890625-57.75 19.449218-10.367188-3.050781-20.457031-6.75-30.230469-11.039062v-25.582031c0-27.597657 15.101563-52.988281 39.363281-66.160157l53.757813-29.210937 22.429687-12.179687.882813-.476563.4375-.242187 20.289063-11.007813h-168.347657c1.027344-10.953125 3.480469-21.480469 7.167969-31.421875 1.882812-5.089844 4.089844-10.03125 6.609375-14.78125.203125-.398438.421875-.796875.632813-1.1875.527343-.992188 1.078124-1.960938 1.648437-2.929688-.007813-.011718 0-.011718 0-.011718 21.449219-37.191406 61.570313-62.25 107.5625-62.410156h.6875c68.371094.148437 123.992187 55.621093 124.3125 123.992187zm0 0" fill="#d0f6ff"/><path d="m370.671875 357.523438c0 21.742187-5.574219 42.1875-15.367187 59.972656-7.246094 13.167968-12.332032 27.355468-14.933594 42.03125-2.320313 13.085937-13.722656 22.617187-27.015625 22.609375l-66.992188-.019531v-112.53125l22.429688-12.183594 21.605469-11.734375h-44.035157v-112.738281c68.5625.152343 124.308594 55.941406 124.308594 124.59375zm0 0" fill="#8fc9f7"/><path d="m316.75 308.230469v6.359375c0 23.71875-19.210938 42.960937-42.929688 42.988281l-27.460937.023437h-92.210937c-11.578126.039063-20.957032 9.558594-20.957032 21.136719v49.011719c0 6.488281-2.8125 12.660156-7.710937 16.910156-1.449219 1.25-3.140625 1.820313-4.800781 1.820313-3.808594 0-7.429688-2.992188-7.429688-7.402344v-93.40625c1.03125-10.953125 3.480469-21.480469 7.160156-31.421875 1.789063-4.800781 4.96875-8.789062 8.980469-11.589844 4.007813-2.789062 8.859375-4.378906 13.980469-4.378906h163.429687c5.5 0 9.949219 4.457031 9.949219 9.949219zm0 0" fill="#fff"/><path d="m316.75 308.230469v6.359375c0 23.71875-19.210938 42.960937-42.929688 42.988281l-27.460937.023437v-59.320312h60.441406c5.5 0 9.949219 4.457031 9.949219 9.949219zm0 0" fill="#d0f6ff"/></svg>