<svg height="512pt" viewBox="0 0 512 512" width="512pt" xmlns="http://www.w3.org/2000/svg"><path d="m512 256c0 141.386719-114.613281 256-256 256s-256-114.613281-256-256 114.613281-256 256-256 256 114.613281 256 256zm0 0" fill="#ffe955"/><path d="m512 256c0 141.378906-114.621094 256-256 256s-256-114.621094-256-256c0-46.21875 12.25-89.570312 33.679688-127 44.121093 77.070312 127.160156 129 222.320312 129s178.210938-51.929688 222.320312-129c21.429688 37.429688 33.679688 80.78125 33.679688 127zm0 0" fill="#ffd112"/><path d="m481.261719 377.699219v.011719c-43.292969 79.96875-127.941407 134.289062-225.261719 134.289062s-181.96875-54.320312-225.261719-134.289062v-.011719zm0 0" fill="#a9178c"/><path d="m481.261719 377.699219v.011719c-43.292969 79.96875-127.941407 134.289062-225.261719 134.289062s-181.96875-54.320312-225.261719-134.289062v-.011719zm0 0" fill="#a9178c"/><path d="m481.261719 377.699219v.011719c-43.292969 79.96875-127.941407 134.289062-225.261719 134.289062s-181.96875-54.320312-225.261719-134.289062v-.011719zm0 0" fill="#ff9f00"/><path d="m232.480469 118.703125c.003906-6.320313 5.136719-11.441406 11.457031-11.4375l124.875.125c6.324219.007813 11.441406 5.136719 11.4375 11.457031-.007812 6.324219-5.136719 11.441406-11.460938 11.4375l-124.875-.125c-6.320312-.003906-11.441406-5.136718-11.433593-11.457031zm0 0" fill="#ed771b"/><path d="m232.480469 118.703125 147.769531.144531c-.007812 6.324219-5.136719 11.441406-11.460938 11.4375l-124.875-.125c-6.320312-.003906-11.441406-5.136718-11.433593-11.457031zm0 0" fill="#a63914"/><path d="m99.425781 260.414062h22.894531v56.660157h-22.894531zm0 0" fill="#ed771b"/><path d="m110.902344 260.554688-.023438 23.0625c-1.445312.128906-2.898437.1875-4.359375.183593l-7.089843-.003906.023437-23.035156 7.085937.144531c1.464844.003906 2.929688-.113281 4.363282-.351562zm0 0" fill="#a63914"/><path d="m110.875 260.421875h11.445312v56.65625h-11.445312zm0 0" fill="#a63914"/><path d="m181.324219 313.828125-10.378907 3.125-11.546874 3.484375-15.757813-52.285156-7.140625-23.699219-1.648438-5.445313 11.539063-3.480468 1.695313-.507813.007812-.007812 8.671875-2.613281 6.074219 20.125zm0 0" fill="#ed771b"/><path d="m162.839844 252.523438-19.199219 15.628906-7.140625-23.699219-1.648438-5.445313 11.539063-3.480468 1.695313-.507813.007812-.007812 8.671875-2.613281zm0 0" fill="#a63914"/><path d="m181.324219 313.828125-10.378907 3.125-17.203124-57.023437-7.300782-24.226563-.050781-.175781 1.695313-.507813.007812-.007812 8.671875-2.613281 6.074219 20.125zm0 0" fill="#a63914"/><path d="m162.839844 252.523438-9.097656 7.40625-7.300782-24.226563-.050781-.175781 1.695313-.507813.007812-.007812 8.671875-2.613281zm0 0" fill="#82240b"/><path d="m243.316406 271.753906-8.058594 8.136719-8.0625 8.121094-48.675781-48.273438-16.121093-15.980469 2.074218-2.089843 5.878906-5.9375 8.167969-8.234375 1.511719 1.496094 16.339844 16.210937zm0 0" fill="#ed771b"/><path d="m187.324219 232.570312-8.804688 7.167969-16.121093-15.980469 2.074218-2.089843 6.515625-5.308594zm0 0" fill="#a63914"/><path d="m243.316406 271.753906-8.058594 8.136719-.21875-.003906-47.714843-47.316407-16.335938-16.210937 9.042969-7.367187 16.339844 16.210937zm0 0" fill="#a63914"/><path d="m380.148438 220.566406-22.894532-.023437.109375-108.996094c.003907-6.320313 5.136719-11.441406 11.457031-11.433594 6.324219.003907 11.441407 5.132813 11.4375 11.457031zm0 0" fill="#82240b"/><path d="m380.148438 220.566406-11.445313-.011718.117187-120.441407c6.324219.003907 11.441407 5.136719 11.4375 11.457031zm0 0" fill="#561b0f"/><path d="m380.21875 151.617188c-57.308594-.054688-103.8125 46.355468-103.867188 103.664062l103.761719.101562zm0 0" fill="#82240b"/><path d="m333.320312 224.125c-.011718.066406-.042968.128906-.0625.199219-1.664062 4.707031-6.089843 7.636719-10.808593 7.632812-1.261719 0-2.546875-.210937-3.800781-.652343l-90.417969-31.960938-19.753907-6.988281c-1.761718-.617188-3.273437-1.632813-4.476562-2.898438l11.824219-9.625c2.292969-2.109375 4.316406-4.476562 6.03125-7.03125l22.007812 7.777344 82.410157 29.136719c5.890624 2.085937 9.023437 8.5 7.046874 14.410156zm0 0" fill="#ed771b"/><g fill="#a63914"><path d="m237.21875 190.445312c-2.664062 3.242188-5.671875 6.234376-8.988281 8.898438l-19.753907-6.988281c-1.757812-.617188-3.273437-1.632813-4.472656-2.898438l9.214844-7.496093zm0 0"/><path d="m333.320312 224.125-11.066406-3.613281-85.035156-30.066407-24.003906-8.484374 2.609375-2.128907c2.292969-2.109375 4.316406-4.476562 6.03125-7.03125l22.007812 7.773438 82.410157 29.140625c5.890624 2.085937 9.023437 8.5 7.046874 14.410156zm0 0"/><path d="m380.121094 243.9375-.023438 22.894531-80.855468-.078125c-25.191407-.027344-48.882813 9.753906-66.71875 27.554688-.007813.011718-.007813.011718-.019532.019531-22.160156 22.105469-51.605468 34.261719-82.898437 34.230469l-81.601563-.082032.019532-22.894531 81.605468.082031c25.191406.023438 48.890625-9.757812 66.71875-27.554687 5.039063-5.035156 10.460938-9.546875 16.1875-13.511719 19.460938-13.507812 42.542969-20.761718 66.730469-20.738281zm0 0"/></g><path d="m380.121094 243.9375-.023438 22.894531-80.855468-.078125c-25.191407-.027344-48.882813 9.753906-66.71875 27.554688-.007813.011718-.007813.011718-.019532.019531l.027344-29.730469c19.464844-13.507812 42.546875-20.761718 66.734375-20.738281zm0 0" fill="#82240b"/><path d="m244.511719 99.988281-.039063 40.742188c-.019531 19.640625-9.484375 38.324219-25.3125 49.984375l-87.835937 71.542968c-8.945313 7.289063-20.226563 11.296876-31.761719 11.285157l.023438-22.894531c6.277343.007812 12.414062-2.175782 17.285156-6.132813l91.996094-74.941406c8.011718-7.378907 12.699218-17.886719 12.710937-28.863281l.019531-17.847657c.007813-8.324219 4.453125-15.59375 11.097656-19.597656 3.445313-2.078125 7.496094-3.28125 11.816407-3.277344zm0 0" fill="#ed771b"/><path d="m122.347656 260.425781-.019531 20.824219c-3.703125 1.230469-7.546875 2.035156-11.449219 2.367188l.023438-23.0625c.257812-.039063.519531-.085938.777344-.136719zm0 0" fill="#82240b"/><path d="m196.371094 225.203125-9.046875 7.367187-16.335938-16.210937 9.042969-7.367187zm0 0" fill="#82240b"/><path d="m243.867188 180.578125c-1.894532 3.492187-4.117188 6.785156-6.648438 9.867187l-24.003906-8.484374 2.609375-2.128907c2.292969-2.109375 4.316406-4.476562 6.03125-7.03125zm0 0" fill="#82240b"/><path d="m244.511719 99.988281-.039063 40.742188c-.019531 19.640625-9.484375 38.324219-25.3125 49.984375l-87.835937 71.542968c-8.945313 7.289063-20.226563 11.296876-31.761719 11.285157l.007812-11.457031c8.800782-.0625 17.324219-3.136719 24.167969-8.707032l88.183594-71.820312c6.285156-4.609375 11.457031-10.628906 15.066406-17.59375 3.621094-6.953125 5.660157-14.863282 5.667969-23.246094l.039062-37.457031c3.445313-2.074219 7.496094-3.277344 11.816407-3.273438zm0 0" fill="#a63914"/><path d="m380.109375 255.386719-.007813 11.445312-80.859374-.078125c-25.191407-.027344-48.882813 9.753906-66.71875 27.554688-.007813.011718-.007813.011718-.019532.019531-22.160156 22.105469-51.605468 34.261719-82.898437 34.230469l-81.601563-.082032.011719-11.445312 81.601563.078125c14.023437.015625 27.761718-2.757813 40.480468-8.011719 12.714844-5.253906 24.410156-12.984375 34.34375-22.890625 2.578125-2.574219 5.269532-5 8.078125-7.265625 18.78125-15.253906 42.328125-23.660156 66.738281-23.636718zm0 0" fill="#82240b"/><path d="m380.109375 255.386719-.007813 11.445312-80.859374-.078125c-25.191407-.027344-48.882813 9.753906-66.71875 27.554688-.007813.011718-.007813.011718-.019532.019531l.015625-15.386719c18.777344-15.253906 42.328125-23.660156 66.734375-23.636718zm0 0" fill="#561b0f"/><path d="m450.238281 94.480469c-3.96875 14.058593-13.328125 26.097656-26.1875 33.398437l-43.832031 24.871094-11.457031 6.5-11.453125 6.5-10.9375 6.210938c-3.902344 2.210937-8.859375.449218-10.511719-3.722657-.75-1.898437-1.410156-3.828125-1.988281-5.757812-3.140625-10.609375-3.652344-21.652344-1.742188-32.230469.710938-3.890625 1.742188-7.730469 3.101563-11.449219 1.429687-3.949219 3.230469-7.78125 5.378906-11.441406 5.050781-8.628906 12.03125-16.289063 20.789063-22.28125l18.980468-11.726563c9.992188-6.832031 19.222656-14.691406 27.519532-23.429687 6.460937 4.769531 12.691406 9.828125 18.660156 15.179687-.957032 2.007813-1.988282 3.976563-3.078125 5.929688l4.960937-4.25c5.238282 4.789062 10.277344 9.777344 15.109375 14.96875-.019531.070312-.050781.148438-.089843.21875-.230469.621094-.480469 1.230469-.730469 1.851562-.589844 1.46875-1.230469 2.917969-1.902344 4.371094-.277344.628906-.566406 1.238282-.878906 1.859375-.058594.128907-.121094.257813-.1875.390625-.273438.570313-.550781 1.128906-.851563 1.6875-.082031.171875-.171875.332032-.25.5-.25.492188-.511718.980469-.78125 1.460938-.257812.5-.527344 1-.820312 1.488281-.546875.992187-1.117188 1.972656-1.707032 2.953125l10.929688-7.011719c2.046875-1.308593 4.617188.609375 3.957031 2.960938zm0 0" fill="#fff"/><path d="m450.238281 94.480469c-3.96875 14.058593-13.328125 26.097656-26.1875 33.398437l-43.832031 24.871094-11.457031 6.5-11.453125 6.5-10.9375 6.210938.789062-6.910157c.320313-2.871093.761719-5.699219 1.320313-8.511719 1.789062-9.167968 4.757812-17.988281 8.78125-26.257812.027343-.0625.046875-.121094.078125-.171875 1.898437-3.890625 4.03125-7.660156 6.378906-11.28125 1.601562-2.457031 3.292969-4.847656 5.089844-7.167969.992187-1.300781 2.03125-2.589844 3.101562-3.839844 1.417969-1.679687 2.890625-3.308593 4.417969-4.890624 7.082031-7.390626 15.292969-13.808594 24.410156-18.988282l22.742188-12.910156 4.960937-4.25c5.238282 4.789062 10.277344 9.777344 15.109375 14.96875-.019531.070312-.050781.148438-.089843.21875-.230469.621094-.480469 1.230469-.730469 1.851562-.589844 1.46875-1.230469 2.917969-1.902344 4.371094-.277344.628906-.566406 1.238282-.878906 1.859375-.058594.128907-.121094.257813-.1875.390625-.273438.570313-.550781 1.128906-.851563 1.6875-.082031.171875-.171875.332032-.25.5-.25.492188-.511718.980469-.78125 1.460938-.257812.5-.527344 1-.820312 1.488281-.546875.992187-1.117188 1.972656-1.707032 2.953125l10.929688-7.011719c2.046875-1.308593 4.617188.609375 3.957031 2.960938zm0 0" fill="#d0f6ff"/><path d="m274.640625 267c.007813-6.886719 5.597656-12.464844 12.484375-12.460938l136.046875.136719c6.886719.007813 12.464844 5.597657 12.460937 12.484375-.007812 6.886719-5.597656 12.464844-12.484374 12.457032l-136.046876-.132813c-6.886718-.007813-12.464843-5.597656-12.460937-12.484375zm0 0" fill="#ed771b"/><path d="m274.640625 267 160.992187.160156c-.007812 6.886719-5.597656 12.464844-12.484374 12.457032l-136.046876-.132813c-6.886718-.007813-12.464843-5.597656-12.460937-12.484375zm0 0" fill="#a63914"/><path d="m154.660156 421.398438-.011718 8.351562-.007813 14.339844-.03125 26.570312-.007813 12.46875-12.472656-.007812-4.359375-.011719h-.007812c-2.730469-1.417969-5.433594-2.890625-8.101563-4.417969l.011719-8.0625.027344-23.769531.019531-23.390625v-2.089844h.132812l11.929688.011719h1.25zm0 0" fill="#ed771b"/><path d="m142.1875 421.539062-.027344 25.128907c-1.570312.140625-3.152344.203125-4.75.199219l-7.71875-.007813.023438-25.09375 7.722656.160156c1.59375.003907 3.1875-.125 4.75-.386719zm0 0" fill="#a63914"/><path d="m142.15625 421.394531h12.472656v61.726563h-12.472656zm0 0" fill="#a63914"/><path d="m218.90625 479.582031-11.300781 3.402344-12.582031 3.792969-17.167969-56.960938-7.78125-25.816406-1.792969-5.933594 12.570312-3.792968 1.84375-.550782.011719-.011718 9.449219-2.84375 6.613281 21.921874zm0 0" fill="#ed771b"/><path d="m198.769531 412.789062-20.914062 17.027344-7.78125-25.816406-1.792969-5.933594 12.570312-3.792968 1.84375-.550782.011719-.011718 9.449219-2.84375zm0 0" fill="#a63914"/><path d="m218.90625 479.582031-11.300781 3.402344-18.742188-62.125-7.957031-26.390625-.054688-.195312 1.84375-.550782.011719-.011718 9.449219-2.84375 6.613281 21.921874zm0 0" fill="#a63914"/><path d="m198.769531 412.789062-9.90625 8.070313-7.957031-26.390625-.054688-.195312 1.84375-.550782.011719-.011718 9.449219-2.84375zm0 0" fill="#82240b"/><path d="m286.449219 433.742188-8.78125 8.863281-8.78125 8.851562-53.03125-52.59375-17.5625-17.414062 2.257812-2.273438 6.402344-6.46875 8.902344-8.96875 1.648437 1.628907 17.800782 17.660156zm0 0" fill="#ed771b"/><path d="m225.449219 391.054688-9.59375 7.808593-17.5625-17.414062 2.257812-2.273438 7.097657-5.785156zm0 0" fill="#a63914"/><path d="m286.449219 433.742188-8.78125 8.863281h-.238281l-51.980469-51.550781-17.800781-17.664063 9.855468-8.023437 17.800782 17.660156zm0 0" fill="#a63914"/><path d="m435.519531 377.976562-24.941406-.027343.117187-118.746094c.007813-6.886719 5.597657-12.464844 12.484376-12.457031 6.886718.007812 12.464843 5.597656 12.460937 12.484375zm0 0" fill="#82240b"/><path d="m435.519531 377.976562-12.46875-.011718.128907-131.21875c6.886718.007812 12.464843 5.597656 12.460937 12.484375zm0 0" fill="#561b0f"/><path d="m435.597656 302.859375c-62.4375-.0625-113.101562 50.5-113.160156 112.9375l113.046875.109375zm0 0" fill="#82240b"/><path d="m384.503906 381.851562c-.011718.078126-.042968.140626-.066406.21875-1.816406 5.125-6.632812 8.320313-11.777344 8.316407-1.375 0-2.773437-.230469-4.140625-.710938l-98.507812-34.820312-21.519531-7.613281c-1.917969-.671876-3.566407-1.78125-4.878907-3.160157l12.882813-10.484375c2.496094-2.296875 4.703125-4.875 6.570312-7.660156l23.980469 8.472656 89.78125 31.742188c6.417969 2.273437 9.828125 9.257812 7.675781 15.699218zm0 0" fill="#ed771b"/><path d="m279.804688 345.160156c-2.902344 3.53125-6.179688 6.792969-9.792969 9.695313l-21.519531-7.613281c-1.917969-.671876-3.566407-1.78125-4.875-3.160157l10.039062-8.167969zm0 0" fill="#a63914"/><path d="m384.503906 381.851562-12.058594-3.9375-92.640624-32.753906-26.148438-9.246094 2.84375-2.316406c2.496094-2.296875 4.699219-4.875 6.566406-7.660156l23.980469 8.46875 89.78125 31.746094c6.417969 2.273437 9.828125 9.257812 7.675781 15.699218zm0 0" fill="#a63914"/><path d="m435.488281 403.441406-.007812 12.46875-.011719 12.46875-88.089844-.089844c-27.449218-.019531-53.257812 10.632813-72.6875 30.03125-.011718.007813-.011718.007813-.019531.019532-24.140625 24.082031-56.222656 37.320312-90.320313 37.289062l-18.652343-.019531c-.847657-.320313-1.6875-.640625-2.527344-.96875-.851563-.332031-1.703125-.660156-2.550781-1.011719-1.109375-.4375-2.210938-.890625-3.300782-1.347656-1.199218-.5-2.398437-1.011719-3.589843-1.542969-.269531-.109375-.539063-.21875-.808594-.347656-.863281-.371094-1.722656-.761719-2.582031-1.160156-.621094-.269531-1.238282-.550781-1.859375-.851563-.332031-.140625-.652344-.289062-.980469-.457031-.96875-.441406-1.949219-.910156-2.910156-1.382813-1.128906-.539062-2.238282-1.089843-3.359375-1.660156-.171875-.078125-.339844-.167968-.511719-.257812-.988281-.492188-1.96875-1-2.949219-1.511719h-.007812c-3.722657-1.9375-7.390625-3.96875-11-6.089844-2.453125-1.429687-4.871094-2.898437-7.261719-4.417969-1.039062-.652343-2.070312-1.3125-3.101562-1.980468h.03125l13.242187.007812 12.46875.019532 12.46875.011718 29.769531.03125c1.921875 0 3.839844-.050781 5.75-.152344 4.472656-.238281 8.890625-.769531 13.242188-1.578124 3.898437-.710938 7.730468-1.660157 11.488281-2.820313 15.761719-4.851563 30.210937-13.492187 42.199219-25.480469.160156-.148437.3125-.308594.472656-.460937 2.949219-2.910157 6.007812-5.660157 9.179688-8.230469 2.589843-2.128906 5.257812-4.128906 7.988281-6.027344.761719-.53125 1.53125-1.050781 2.3125-1.5625 13.929687-9.21875 29.476562-15.558594 45.898437-18.71875 7.980469-1.53125 16.179688-2.320312 24.488282-2.308594zm0 0" fill="#a63914"/><path d="m435.492188 403.4375-.023438 24.945312-88.089844-.089843c-27.445312-.027344-53.257812 10.628906-72.6875 30.023437-.011718.007813-.011718.007813-.023437.019532l.03125-32.390626c21.207031-14.714843 46.351562-22.621093 72.703125-22.59375zm0 0" fill="#82240b"/><path d="m287.753906 246.613281-.046875 44.386719c-.019531 21.394531-10.332031 41.75-27.574219 54.453125l-95.695312 77.941406c-9.746094 7.941407-22.035156 12.308594-34.605469 12.296875l.027344-24.941406c6.839844.007812 13.523437-2.371094 18.832031-6.683594l100.226563-81.644531c8.726562-8.039063 13.835937-19.484375 13.847656-31.445313l.019531-19.445312c.007813-9.066406 4.851563-16.988281 12.089844-21.351562 3.753906-2.265626 8.171875-3.570313 12.878906-3.566407zm0 0" fill="#ed771b"/><path d="m154.65625 421.402344-.019531 22.6875c-4.035157 1.339844-8.222657 2.214844-12.476563 2.578125l.027344-25.128907c.28125-.042968.5625-.09375.84375-.148437zm0 0" fill="#82240b"/><path d="m235.304688 383.027344-9.855469 8.027344-17.800781-17.664063 9.855468-8.023437zm0 0" fill="#82240b"/><path d="m287.046875 334.40625c-2.066406 3.804688-4.488281 7.394531-7.246094 10.75l-26.148437-9.242188 2.84375-2.316406c2.496094-2.296875 4.703125-4.875 6.570312-7.664062zm0 0" fill="#82240b"/><path d="m287.753906 246.613281-.046875 44.386719c-.019531 21.394531-10.332031 41.75-27.574219 54.453125l-95.695312 77.941406c-9.746094 7.941407-22.035156 12.308594-34.605469 12.296875l.011719-12.480468c9.585938-.066407 18.875-3.421876 26.332031-9.484376l96.070313-78.246093c6.847656-5.027344 12.484375-11.582031 16.414062-19.167969 3.945313-7.578125 6.167969-16.195312 6.175782-25.328125l.039062-40.804687c3.753906-2.265626 8.171875-3.570313 12.878906-3.566407zm0 0" fill="#a63914"/><path d="m435.480469 415.910156-.011719 12.46875-88.089844-.089844c-27.449218-.019531-53.257812 10.632813-72.6875 30.03125-.011718.007813-.011718.007813-.019531.019532-24.140625 24.082031-56.222656 37.320312-90.320313 37.289062l-18.652343-.019531c-9.597657-3.609375-18.917969-7.789063-27.929688-12.5l4.359375.011719 12.472656.007812 29.769532.03125c3.160156 0 6.308594-.128906 9.4375-.390625 4.441406-.347656 8.839844-.96875 13.171875-1.828125 3.878906-.78125 7.699219-1.742187 11.460937-2.910156 3.398438-1.042969 6.738282-2.242188 10.027344-3.601562 13.851562-5.71875 26.589844-14.148438 37.410156-24.941407.171875-.167969.339844-.339843.519532-.5 2.652343-2.628906 5.421874-5.097656 8.292968-7.417969.308594-.261718.628906-.511718.949219-.75 3.359375-2.679687 6.847656-5.148437 10.46875-7.421874 18.191406-11.398438 39.371094-17.578126 61.191406-17.578126h.089844zm0 0" fill="#82240b"/><path d="m435.480469 415.910156-.011719 12.472656-88.089844-.089843c-27.445312-.027344-53.257812 10.628906-72.6875 30.023437-.011718.007813-.011718.007813-.023437.019532l.019531-16.765626c20.457031-16.613281 46.113281-25.773437 72.703125-25.746093zm0 0" fill="#561b0f"/><path d="m511.878906 240.601562c-.089844.320313-.179687.636719-.277344.957032v.011718c-4.472656 14.910157-14.542968 27.648438-28.25 35.429688l-47.75 27.101562h-.011718l-12.46875 7.078126-12.480469 7.082031-11.910156 6.757812c-4.261719 2.410157-9.660157.5-11.449219-4.050781-.820312-2.078125-1.550781-4.167969-2.160156-6.289062-3.441406-11.558594-4-23.578126-1.910156-35.101563.769531-4.238281 1.898437-8.40625 3.378906-12.46875 1.550781-4.300781 3.511718-8.480469 5.851562-12.460937 5.5-9.410157 13.109375-17.75 22.660156-24.277344l20.667969-12.78125c20.230469-13.828125 37.539063-31.5 50.960938-52l5.5-8.398438c1.820312 4.347656 3.53125 8.769532 5.109375 13.238282-1.929688 15.609374-6.859375 30.78125-14.609375 44.640624l22.210937-19.019531.480469-.410156c2.566406-2.199219 6.519531-.101563 6.109375 3.269531-.621094 5.191406-1.601562 10.320313-2.921875 15.371094-2.800781 10.777344-7.148437 21.140625-12.949219 30.75l11.910156-7.640625c1.359376-.878906 2.941407-.441406 3.800782.621094v.007812c.539062.671875.789062 1.589844.507812 2.582031zm0 0" fill="#fff"/><path d="m511.535156 198.90625c-1.96875 16.289062-7.367187 32.011719-15.875 46.117188l11.90625-7.636719c2.234375-1.433594 5.039063.664062 4.316406 3.21875-4.320312 15.320312-14.523437 28.445312-28.53125 36.394531l-84.625 48.015625.851563-7.527344c4.207031-37.097656 25.902344-69.9375 58.375-88.367187l24.777344-14.054688 22.683593-19.421875c2.574219-2.207031 6.527344-.101562 6.121094 3.261719zm0 0" fill="#d0f6ff"/></svg>