<svg id="Capa_1" enable-background="new 0 0 512 512" height="512" viewBox="0 0 512 512" width="512" xmlns="http://www.w3.org/2000/svg"><circle cx="256" cy="256" fill="#82f700" r="256"/><path d="m512 256c0 87.11-43.52 164.07-110 210.31-41.41 28.8-91.73 45.69-146 45.69s-104.59-16.89-146-45.69c-66.48-46.24-110-123.2-110-210.31 0-46.22 12.25-89.57 33.68-127 44.12 77.07 127.16 129 222.32 129s178.21-51.93 222.32-129c21.43 37.43 33.68 80.78 33.68 127z" fill="#03cc7f"/><path d="m339.408 114.981v253.769c-24.302 0-43.986 19.684-43.986 43.986v40.74h-78.844v-40.74c0-24.302-19.684-43.986-43.986-43.986v-253.769l83.408-78.178z" fill="#fff"/><path d="m339.408 114.981v253.769c-24.302 0-43.986 19.684-43.986 43.986v40.74h-39.422v-416.673z" fill="#d1f6ff"/><path d="m256 93.492v339.614h-40.33v-301.808z" fill="#ffe853"/><path d="m296.33 131.298v301.808h-40.33v-339.614z" fill="#fed110"/><path d="m285.754 161.051-29.754 29.741-29.754-29.741 29.754-29.753z" fill="#6cdc2d"/><path d="m234.961 199.507h42.078v42.078h-42.078z" fill="#6cdc2d" transform="matrix(.707 -.707 .707 .707 -80.969 245.616)"/><path d="m285.754 280.04-29.754 29.754-29.754-29.754 29.754-29.741z" fill="#6cdc2d"/><path d="m285.754 339.534-29.754 29.754-29.754-29.754 29.754-29.74z" fill="#6cdc2d"/><path d="m285.754 161.051-29.754 29.741v-59.494z" fill="#00a042"/><path d="m248.712 153.758h14.576v14.576h-14.576z" fill="#a3f500" transform="matrix(.707 -.707 .707 .707 -38.911 228.125)"/><path d="m266.308 161.047-10.308 10.304v-20.612z" fill="#6cdc2d"/><path d="m256 369.288v-59.494l29.754 29.74z" fill="#00a042"/><path d="m256 309.794v-59.495l29.754 29.741z" fill="#00a042"/><path d="m256 250.299v-59.507l29.754 29.754z" fill="#00a042"/><path d="m248.712 213.258h14.576v14.576h-14.576z" fill="#a3f500" transform="matrix(.707 -.707 .707 .707 -80.975 245.543)"/><path d="m266.308 220.548-10.308 10.303v-20.611z" fill="#6cdc2d"/><path d="m248.712 272.76h14.576v14.576h-14.576z" fill="#a3f500" transform="matrix(.707 -.707 .707 .707 -123.039 262.961)"/><path d="m266.308 280.049-10.308 10.303v-20.611z" fill="#6cdc2d"/><path d="m248.712 332.254h14.576v14.576h-14.576z" fill="#a3f500" transform="matrix(.707 -.707 .707 .707 -165.099 280.378)"/><path d="m266.308 339.543-10.308 10.304v-20.612z" fill="#6cdc2d"/><path d="m297.7 433.1v75.51c-13.57 2.23-27.5 3.39-41.7 3.39s-28.13-1.16-41.7-3.39v-75.51z" fill="#ec781b"/><path d="m297.7 433.1v75.51c-13.57 2.23-27.5 3.39-41.7 3.39v-78.9z" fill="#c55733"/><path d="m214.296 433.097h41.704v59.228h-41.704z" fill="#c55733"/><path d="m256 433.097h41.704v59.228h-41.704z" fill="#a63917"/><path d="m374.184 433.099c0 11.262-9.115 20.377-20.363 20.377h-195.642c-11.248 0-20.363-9.115-20.363-20.377 0-5.624 2.282-10.718 5.964-14.399 3.681-3.681 8.775-5.964 14.399-5.964h195.642c11.248 0 20.363 9.115 20.363 20.363z" fill="#fed110"/><path d="m374.184 433.099c0 11.262-9.115 20.377-20.363 20.377h-145.828c-11.248 0-20.363-9.115-20.363-20.377 0-5.624 2.282-10.718 5.964-14.399 3.681-3.681 8.776-5.964 14.399-5.964h145.828c11.248 0 20.363 9.115 20.363 20.363z" fill="#ff9f00"/><path d="m374.184 433.106c0 11.25-9.12 20.37-20.37 20.37h-97.814v-40.74h97.814c11.25 0 20.37 9.12 20.37 20.37z" fill="#ec781b"/><g fill="#fff"><path d="m79.141 128.751h1.524c6.753 0 12.227-5.474 12.227-12.227v-1.524h8.716v1.524c0 6.753 5.474 12.227 12.227 12.227h1.525v8.716h-1.525c-6.753 0-12.227 5.474-12.227 12.227v1.525h-8.716v-1.525c0-6.753-5.474-12.227-12.227-12.227h-1.524z"/><path d="m396.641 128.751h1.524c6.753 0 12.227-5.474 12.227-12.227v-1.524h8.716v1.524c0 6.753 5.474 12.227 12.227 12.227h1.525v8.716h-1.525c-6.753 0-12.227 5.474-12.227 12.227v1.525h-8.716v-1.525c0-6.753-5.474-12.227-12.227-12.227h-1.524z"/><path d="m41.641 284.751h1.524c6.753 0 12.227-5.474 12.227-12.227v-1.524h8.716v1.524c0 6.753 5.474 12.227 12.227 12.227h1.525v8.716h-1.525c-6.753 0-12.227 5.474-12.227 12.227v1.525h-8.716v-1.525c0-6.753-5.474-12.227-12.227-12.227h-1.524z"/><path d="m434.141 284.751h1.524c6.753 0 12.227-5.474 12.227-12.227v-1.524h8.716v1.524c0 6.753 5.474 12.227 12.227 12.227h1.525v8.716h-1.525c-6.753 0-12.227 5.474-12.227 12.227v1.525h-8.716v-1.525c0-6.753-5.474-12.227-12.227-12.227h-1.524z"/></g></svg>